<?xml version="1.0" encoding="utf-8" standalone="no"?>
<!DOCTYPE svg PUBLIC "-//W3C//DTD SVG 1.1//EN"
  "http://www.w3.org/Graphics/SVG/1.1/DTD/svg11.dtd">
<svg xmlns:xlink="http://www.w3.org/1999/xlink" width="460.8pt" height="345.6pt" viewBox="0 0 460.8 345.6" xmlns="http://www.w3.org/2000/svg" version="1.1">
 <metadata>
  <rdf:RDF xmlns:dc="http://purl.org/dc/elements/1.1/" xmlns:cc="http://creativecommons.org/ns#" xmlns:rdf="http://www.w3.org/1999/02/22-rdf-syntax-ns#">
   <cc:Work>
    <dc:type rdf:resource="http://purl.org/dc/dcmitype/StillImage"/>
    <dc:date>2023-12-29T17:18:10.137251</dc:date>
    <dc:format>image/svg+xml</dc:format>
    <dc:creator>
     <cc:Agent>
      <dc:title>Matplotlib v3.7.1, https://matplotlib.org/</dc:title>
     </cc:Agent>
    </dc:creator>
   </cc:Work>
  </rdf:RDF>
 </metadata>
 <defs>
  <style type="text/css">*{stroke-linejoin: round; stroke-linecap: butt}</style>
 </defs>
 <g id="figure_1">
  <g id="patch_1">
   <path d="M 0 345.6 
L 460.8 345.6 
L 460.8 0 
L 0 0 
z
" style="fill: #ffffff"/>
  </g>
  <g id="axes_1">
   <g id="patch_2">
    <path d="M 42.01 219.652637 
L 450 219.652637 
L 450 125.947363 
L 42.01 125.947363 
z
" style="fill: #ffffff"/>
   </g>
   <g id="matplotlib.axis_1">
    <g id="xtick_1">
     <g id="line2d_1">
      <defs>
       <path id="m21ec8d1229" d="M 0 0 
L 0 3.5 
" style="stroke: #000000; stroke-width: 0.8"/>
      </defs>
      <g>
       <use xlink:href="#m21ec8d1229" x="70.892267" y="219.652637" style="stroke: #000000; stroke-width: 0.8"/>
      </g>
     </g>
     <g id="text_1">
      <!-- 0.0 -->
      <g transform="translate(62.940705 234.251074) scale(0.1 -0.1)">
       <defs>
        <path id="DejaVuSans-30" d="M 2034 4250 
Q 1547 4250 1301 3770 
Q 1056 3291 1056 2328 
Q 1056 1369 1301 889 
Q 1547 409 2034 409 
Q 2525 409 2770 889 
Q 3016 1369 3016 2328 
Q 3016 3291 2770 3770 
Q 2525 4250 2034 4250 
z
M 2034 4750 
Q 2819 4750 3233 4129 
Q 3647 3509 3647 2328 
Q 3647 1150 3233 529 
Q 2819 -91 2034 -91 
Q 1250 -91 836 529 
Q 422 1150 422 2328 
Q 422 3509 836 4129 
Q 1250 4750 2034 4750 
z
" transform="scale(0.015625)"/>
        <path id="DejaVuSans-2e" d="M 684 794 
L 1344 794 
L 1344 0 
L 684 0 
L 684 794 
z
" transform="scale(0.015625)"/>
       </defs>
       <use xlink:href="#DejaVuSans-30"/>
       <use xlink:href="#DejaVuSans-2e" x="63.623047"/>
       <use xlink:href="#DejaVuSans-30" x="95.410156"/>
      </g>
     </g>
    </g>
    <g id="xtick_2">
     <g id="line2d_2">
      <g>
       <use xlink:href="#m21ec8d1229" x="143.004814" y="219.652637" style="stroke: #000000; stroke-width: 0.8"/>
      </g>
     </g>
     <g id="text_2">
      <!-- 0.2 -->
      <g transform="translate(135.053251 234.251074) scale(0.1 -0.1)">
       <defs>
        <path id="DejaVuSans-32" d="M 1228 531 
L 3431 531 
L 3431 0 
L 469 0 
L 469 531 
Q 828 903 1448 1529 
Q 2069 2156 2228 2338 
Q 2531 2678 2651 2914 
Q 2772 3150 2772 3378 
Q 2772 3750 2511 3984 
Q 2250 4219 1831 4219 
Q 1534 4219 1204 4116 
Q 875 4013 500 3803 
L 500 4441 
Q 881 4594 1212 4672 
Q 1544 4750 1819 4750 
Q 2544 4750 2975 4387 
Q 3406 4025 3406 3419 
Q 3406 3131 3298 2873 
Q 3191 2616 2906 2266 
Q 2828 2175 2409 1742 
Q 1991 1309 1228 531 
z
" transform="scale(0.015625)"/>
       </defs>
       <use xlink:href="#DejaVuSans-30"/>
       <use xlink:href="#DejaVuSans-2e" x="63.623047"/>
       <use xlink:href="#DejaVuSans-32" x="95.410156"/>
      </g>
     </g>
    </g>
    <g id="xtick_3">
     <g id="line2d_3">
      <g>
       <use xlink:href="#m21ec8d1229" x="215.11736" y="219.652637" style="stroke: #000000; stroke-width: 0.8"/>
      </g>
     </g>
     <g id="text_3">
      <!-- 0.4 -->
      <g transform="translate(207.165798 234.251074) scale(0.1 -0.1)">
       <defs>
        <path id="DejaVuSans-34" d="M 2419 4116 
L 825 1625 
L 2419 1625 
L 2419 4116 
z
M 2253 4666 
L 3047 4666 
L 3047 1625 
L 3713 1625 
L 3713 1100 
L 3047 1100 
L 3047 0 
L 2419 0 
L 2419 1100 
L 313 1100 
L 313 1709 
L 2253 4666 
z
" transform="scale(0.015625)"/>
       </defs>
       <use xlink:href="#DejaVuSans-30"/>
       <use xlink:href="#DejaVuSans-2e" x="63.623047"/>
       <use xlink:href="#DejaVuSans-34" x="95.410156"/>
      </g>
     </g>
    </g>
    <g id="xtick_4">
     <g id="line2d_4">
      <g>
       <use xlink:href="#m21ec8d1229" x="287.229907" y="219.652637" style="stroke: #000000; stroke-width: 0.8"/>
      </g>
     </g>
     <g id="text_4">
      <!-- 0.6 -->
      <g transform="translate(279.278344 234.251074) scale(0.1 -0.1)">
       <defs>
        <path id="DejaVuSans-36" d="M 2113 2584 
Q 1688 2584 1439 2293 
Q 1191 2003 1191 1497 
Q 1191 994 1439 701 
Q 1688 409 2113 409 
Q 2538 409 2786 701 
Q 3034 994 3034 1497 
Q 3034 2003 2786 2293 
Q 2538 2584 2113 2584 
z
M 3366 4563 
L 3366 3988 
Q 3128 4100 2886 4159 
Q 2644 4219 2406 4219 
Q 1781 4219 1451 3797 
Q 1122 3375 1075 2522 
Q 1259 2794 1537 2939 
Q 1816 3084 2150 3084 
Q 2853 3084 3261 2657 
Q 3669 2231 3669 1497 
Q 3669 778 3244 343 
Q 2819 -91 2113 -91 
Q 1303 -91 875 529 
Q 447 1150 447 2328 
Q 447 3434 972 4092 
Q 1497 4750 2381 4750 
Q 2619 4750 2861 4703 
Q 3103 4656 3366 4563 
z
" transform="scale(0.015625)"/>
       </defs>
       <use xlink:href="#DejaVuSans-30"/>
       <use xlink:href="#DejaVuSans-2e" x="63.623047"/>
       <use xlink:href="#DejaVuSans-36" x="95.410156"/>
      </g>
     </g>
    </g>
    <g id="xtick_5">
     <g id="line2d_5">
      <g>
       <use xlink:href="#m21ec8d1229" x="359.342453" y="219.652637" style="stroke: #000000; stroke-width: 0.8"/>
      </g>
     </g>
     <g id="text_5">
      <!-- 0.8 -->
      <g transform="translate(351.390891 234.251074) scale(0.1 -0.1)">
       <defs>
        <path id="DejaVuSans-38" d="M 2034 2216 
Q 1584 2216 1326 1975 
Q 1069 1734 1069 1313 
Q 1069 891 1326 650 
Q 1584 409 2034 409 
Q 2484 409 2743 651 
Q 3003 894 3003 1313 
Q 3003 1734 2745 1975 
Q 2488 2216 2034 2216 
z
M 1403 2484 
Q 997 2584 770 2862 
Q 544 3141 544 3541 
Q 544 4100 942 4425 
Q 1341 4750 2034 4750 
Q 2731 4750 3128 4425 
Q 3525 4100 3525 3541 
Q 3525 3141 3298 2862 
Q 3072 2584 2669 2484 
Q 3125 2378 3379 2068 
Q 3634 1759 3634 1313 
Q 3634 634 3220 271 
Q 2806 -91 2034 -91 
Q 1263 -91 848 271 
Q 434 634 434 1313 
Q 434 1759 690 2068 
Q 947 2378 1403 2484 
z
M 1172 3481 
Q 1172 3119 1398 2916 
Q 1625 2713 2034 2713 
Q 2441 2713 2670 2916 
Q 2900 3119 2900 3481 
Q 2900 3844 2670 4047 
Q 2441 4250 2034 4250 
Q 1625 4250 1398 4047 
Q 1172 3844 1172 3481 
z
" transform="scale(0.015625)"/>
       </defs>
       <use xlink:href="#DejaVuSans-30"/>
       <use xlink:href="#DejaVuSans-2e" x="63.623047"/>
       <use xlink:href="#DejaVuSans-38" x="95.410156"/>
      </g>
     </g>
    </g>
    <g id="xtick_6">
     <g id="line2d_6">
      <g>
       <use xlink:href="#m21ec8d1229" x="431.455" y="219.652637" style="stroke: #000000; stroke-width: 0.8"/>
      </g>
     </g>
     <g id="text_6">
      <!-- 1.0 -->
      <g transform="translate(423.503438 234.251074) scale(0.1 -0.1)">
       <defs>
        <path id="DejaVuSans-31" d="M 794 531 
L 1825 531 
L 1825 4091 
L 703 3866 
L 703 4441 
L 1819 4666 
L 2450 4666 
L 2450 531 
L 3481 531 
L 3481 0 
L 794 0 
L 794 531 
z
" transform="scale(0.015625)"/>
       </defs>
       <use xlink:href="#DejaVuSans-31"/>
       <use xlink:href="#DejaVuSans-2e" x="63.623047"/>
       <use xlink:href="#DejaVuSans-30" x="95.410156"/>
      </g>
     </g>
    </g>
   </g>
   <g id="matplotlib.axis_2">
    <g id="ytick_1">
     <g id="line2d_7">
      <defs>
       <path id="m7a9576beab" d="M 0 0 
L -3.5 0 
" style="stroke: #000000; stroke-width: 0.8"/>
      </defs>
      <g>
       <use xlink:href="#m7a9576beab" x="42.01" y="214.329915" style="stroke: #000000; stroke-width: 0.8"/>
      </g>
     </g>
     <g id="text_7">
      <!-- −0.1 -->
      <g transform="translate(10.727187 218.129134) scale(0.1 -0.1)">
       <defs>
        <path id="DejaVuSans-2212" d="M 678 2272 
L 4684 2272 
L 4684 1741 
L 678 1741 
L 678 2272 
z
" transform="scale(0.015625)"/>
       </defs>
       <use xlink:href="#DejaVuSans-2212"/>
       <use xlink:href="#DejaVuSans-30" x="83.789062"/>
       <use xlink:href="#DejaVuSans-2e" x="147.412109"/>
       <use xlink:href="#DejaVuSans-31" x="179.199219"/>
      </g>
     </g>
    </g>
    <g id="ytick_2">
     <g id="line2d_8">
      <g>
       <use xlink:href="#m7a9576beab" x="42.01" y="178.273642" style="stroke: #000000; stroke-width: 0.8"/>
      </g>
     </g>
     <g id="text_8">
      <!-- 0.0 -->
      <g transform="translate(19.106875 182.07286) scale(0.1 -0.1)">
       <use xlink:href="#DejaVuSans-30"/>
       <use xlink:href="#DejaVuSans-2e" x="63.623047"/>
       <use xlink:href="#DejaVuSans-30" x="95.410156"/>
      </g>
     </g>
    </g>
    <g id="ytick_3">
     <g id="line2d_9">
      <g>
       <use xlink:href="#m7a9576beab" x="42.01" y="142.217368" style="stroke: #000000; stroke-width: 0.8"/>
      </g>
     </g>
     <g id="text_9">
      <!-- 0.1 -->
      <g transform="translate(19.106875 146.016587) scale(0.1 -0.1)">
       <use xlink:href="#DejaVuSans-30"/>
       <use xlink:href="#DejaVuSans-2e" x="63.623047"/>
       <use xlink:href="#DejaVuSans-31" x="95.410156"/>
      </g>
     </g>
    </g>
   </g>
   <g id="line2d_10">
    <path d="M 431.455 165.812452 
L 421.494704 174.554901 
L 426.916314 174.577214 
L 425.193256 182.290023 
L 418.280628 174.910606 
L 418.400506 178.030227 
L 417.047591 178.004219 
L 406.979108 174.297529 
L 393.97759 172.845358 
L 395.245593 172.420966 
L 389.359709 177.577106 
L 386.289345 167.535598 
L 380.782501 175.42325 
L 378.367984 165.671229 
L 364.60471 162.44221 
L 349.709021 166.001997 
L 346.110941 166.658794 
L 336.789621 164.543999 
L 340.851052 164.037088 
L 335.122548 167.886534 
L 335.154462 167.429714 
L 328.089269 171.212835 
L 326.407194 163.948824 
L 323.098106 167.229658 
L 320.286819 161.838909 
L 310.248961 168.095583 
L 317.823389 163.22818 
L 312.359549 156.968199 
L 308.856223 159.789667 
L 309.361653 166.436822 
L 306.532894 162.596141 
L 305.929227 165.321189 
L 303.980533 163.137099 
L 297.18557 164.394444 
L 295.243516 168.589025 
L 292.4468 165.052182 
L 284.419918 162.066008 
L 288.088017 164.783318 
L 285.466239 165.848801 
L 285.331102 159.914274 
L 278.527951 161.581488 
L 278.871144 155.770704 
L 275.454944 159.987118 
L 271.420506 155.88662 
L 270.583466 158.78287 
L 263.830819 153.842239 
L 262.279777 154.692241 
L 258.171108 149.552993 
L 259.644675 148.571718 
L 249.487702 140.108475 
L 251.309866 149.180924 
L 245.242542 147.339473 
L 243.868802 143.814807 
L 235.444472 143.971902 
L 239.206917 139.661786 
L 234.873644 145.115157 
L 229.994257 140.769107 
L 225.652753 139.452432 
L 210.820248 136.379494 
L 201.096344 139.053249 
L 196.538305 135.495118 
L 195.076215 137.03333 
L 186.93689 142.565155 
L 182.167077 134.949098 
L 182.131305 138.200697 
L 163.459244 136.892339 
L 162.799345 134.459494 
L 157.966127 133.193457 
L 147.453915 135.6201 
L 148.048007 134.665887 
L 130.424068 139.668381 
L 134.140033 137.355722 
L 128.929504 143.468586 
L 122.180425 134.354028 
L 117.731996 143.697167 
L 112.032459 147.889299 
L 105.489038 152.01911 
L 104.07887 156.04156 
L 89.470412 157.754095 
L 91.621851 159.480661 
L 93.228492 160.290134 
L 85.579451 161.232477 
L 77.464798 167.743398 
L 77.582988 166.395101 
L 73.584962 169.017759 
L 68.022668 170.750685 
L 60.555 175.800916 
L 65.952749 174.285904 
L 61.291106 177.201227 
L 60.556835 184.03827 
L 62.052457 182.073819 
L 60.95615 178.017579 
L 65.69723 182.502506 
L 65.395349 183.429412 
L 70.551609 184.661862 
L 65.275386 181.683747 
L 70.305394 185.323642 
L 72.743957 187.244116 
L 77.339575 188.674092 
L 84.891572 186.927437 
L 82.766476 186.434539 
L 91.488789 189.065051 
L 95.009839 184.687723 
L 104.083381 189.006928 
L 114.232676 185.128051 
L 116.785867 192.165588 
L 123.714086 186.349817 
L 127.553057 188.32883 
L 136.977647 192.023098 
L 143.338181 190.172275 
L 149.295857 183.419323 
L 155.911605 190.512013 
L 163.261213 194.178494 
L 168.247486 191.385735 
L 177.684493 191.543092 
L 185.04547 190.676046 
L 196.020023 191.230365 
L 201.519291 190.265626 
L 211.934933 194.492702 
L 223.817468 191.707802 
L 225.256025 193.637904 
L 233.419785 191.154408 
L 240.33612 193.57592 
L 252.760394 198.568948 
L 256.984643 198.631869 
L 262.821356 195.392644 
L 270.242572 195.893046 
L 275.528336 194.399744 
L 290.266559 198.563491 
L 288.126701 192.296121 
L 296.191601 195.313551 
L 308.650831 192.431173 
L 306.533152 190.112079 
L 309.975808 188.812525 
L 315.144187 189.420914 
L 323.042487 190.774117 
L 326.424688 179.197036 
L 331.733835 182.375565 
L 339.495343 177.27854 
L 340.062475 177.639164 
L 342.877029 179.803281 
L 347.164612 176.803506 
L 350.816292 170.472111 
L 352.470427 176.45111 
L 359.529001 174.120603 
L 361.611393 170.574921 
L 361.866278 166.897057 
L 362.339816 169.562458 
L 370.384622 169.428648 
L 363.42336 168.560365 
L 367.652766 166.87377 
L 361.49794 169.398142 
L 364.054557 171.482595 
L 359.367688 164.166558 
L 357.741556 170.044848 
L 354.390925 169.040463 
L 360.524947 169.190042 
L 355.096718 166.115372 
L 353.140631 168.655843 
L 349.384289 168.401777 
L 349.655573 169.893112 
L 347.749302 170.422455 
L 347.73991 163.344489 
L 339.295712 166.456394 
L 338.234497 166.574008 
L 332.792685 154.018193 
L 332.597029 160.452241 
L 327.057325 163.520224 
L 322.330977 158.399346 
L 325.345249 158.962896 
L 316.372861 154.845927 
L 310.485902 155.523679 
L 311.840837 150.129019 
L 301.751142 152.035844 
L 295.766741 154.183872 
L 296.850887 145.301263 
L 290.979681 148.887528 
L 289.193138 144.652771 
L 278.387936 145.194121 
L 272.937162 141.6753 
L 273.019517 140.657224 
L 263.019225 137.00876 
L 259.737495 138.834103 
L 251.456415 130.206694 
L 250.663497 143.074451 
L 245.38014 137.865118 
L 236.794529 138.021802 
L 234.881886 133.72501 
L 229.497929 136.988488 
L 220.92172 144.065679 
L 214.183386 138.776254 
L 207.313129 133.953488 
L 197.969093 137.575806 
L 203.738947 132.968954 
L 189.01883 134.594133 
L 184.431917 137.683729 
L 180.32067 131.779475 
L 175.818175 131.642409 
L 173.273443 130.864664 
L 169.604355 132.922114 
L 164.798447 130.780558 
L 156.43317 134.879854 
L 155.212093 133.193758 
L 154.296143 134.543675 
L 147.138214 133.246865 
L 146.006729 137.577071 
L 139.20476 141.711169 
L 140.143125 145.024867 
L 134.212743 146.709762 
L 135.47518 150.539416 
L 131.240643 151.182183 
L 131.918696 154.896252 
L 127.650412 165.028205 
L 127.519971 158.170838 
L 130.26045 162.308795 
L 133.717027 164.596082 
L 132.930884 165.438688 
L 135.308645 169.947054 
L 134.412407 169.747943 
L 135.328583 175.872706 
L 142.453377 175.502637 
L 140.114354 175.414441 
L 146.078864 179.692183 
L 153.814143 181.961303 
L 160.559574 187.491322 
L 167.279629 188.642802 
L 163.78274 192.542721 
L 176.206617 190.154095 
L 177.975344 195.596215 
L 187.64018 199.911885 
L 200.110908 199.33043 
L 200.396322 200.870927 
L 213.245327 200.248129 
L 224.589185 199.474271 
L 235.053859 205.622637 
L 246.693919 211.835086 
L 255.764286 209.068004 
L 270.734098 208.849591 
L 282.427983 211.514421 
L 293.523682 215.393306 
L 304.154483 213.893574 
L 308.739246 211.142575 
L 317.422664 205.728135 
L 327.193257 204.462238 
L 332.879424 200.721938 
L 353.421392 204.786726 
L 367.106481 201.30613 
L 374.911488 200.661673 
L 389.704857 197.404145 
L 396.722169 205.685961 
L 422.872763 193.654962 
L 420.782786 199.082795 
L 420.782786 199.082795 
" clip-path="url(#p19dcca89ae)" style="fill: none; stroke: #1f77b4; stroke-width: 1.5; stroke-linecap: square"/>
   </g>
   <g id="patch_3">
    <path d="M 42.01 219.652637 
L 42.01 125.947363 
" style="fill: none; stroke: #000000; stroke-width: 0.8; stroke-linejoin: miter; stroke-linecap: square"/>
   </g>
   <g id="patch_4">
    <path d="M 450 219.652637 
L 450 125.947363 
" style="fill: none; stroke: #000000; stroke-width: 0.8; stroke-linejoin: miter; stroke-linecap: square"/>
   </g>
   <g id="patch_5">
    <path d="M 42.01 219.652637 
L 450 219.652637 
" style="fill: none; stroke: #000000; stroke-width: 0.8; stroke-linejoin: miter; stroke-linecap: square"/>
   </g>
   <g id="patch_6">
    <path d="M 42.01 125.947363 
L 450 125.947363 
" style="fill: none; stroke: #000000; stroke-width: 0.8; stroke-linejoin: miter; stroke-linecap: square"/>
   </g>
  </g>
 </g>
 <defs>
  <clipPath id="p19dcca89ae">
   <rect x="42.01" y="125.947363" width="407.99" height="93.705273"/>
  </clipPath>
 </defs>
</svg>
